<?xml version="1.0" standalone="no"?>
<!DOCTYPE svg PUBLIC "-//W3C//DTD SVG 20010904//EN"
 "http://www.w3.org/TR/2001/REC-SVG-20010904/DTD/svg10.dtd">
<svg version="1.0" xmlns="http://www.w3.org/2000/svg"
 width="512.000000pt" height="512.000000pt" viewBox="0 0 512.000000 512.000000"
 preserveAspectRatio="xMidYMid meet">
<metadata>
Created by potrace 1.11, written by Peter Selinger 2001-2013
</metadata>
<g transform="translate(0.000000,512.000000) scale(0.100000,-0.100000)"
fill="#000000" stroke="none">
<path d="M2400 4630 c-88 -16 -106 -20 -181 -44 -278 -89 -523 -297 -653 -555
-52 -103 -97 -235 -110 -327 -3 -18 -21 -19 -367 -24 -381 -6 -396 -7 -464
-53 -46 -32 -91 -83 -116 -135 -23 -46 -24 -54 -27 -367 l-3 -320 798 1 798 0
10 35 c16 53 32 75 72 101 38 23 39 23 393 24 336 1 357 0 398 -19 47 -22 71
-51 87 -106 l10 -35 789 0 c433 -1 792 2 798 5 6 4 8 124 6 320 -3 312 -3 314
-28 364 -31 62 -92 123 -156 155 l-49 25 -360 3 c-198 1 -366 5 -372 7 -7 2
-13 15 -13 29 0 13 -12 64 -26 112 -140 484 -569 809 -1069 811 -66 0 -140 -3
-165 -7z m290 -321 c75 -14 175 -46 235 -77 106 -56 225 -160 283 -247 15 -22
29 -42 32 -45 24 -24 100 -211 100 -247 0 -11 -139 -13 -780 -13 -641 0 -780
2 -780 13 0 31 53 166 90 228 53 89 113 158 191 219 35 28 70 55 77 61 43 35
195 89 317 112 40 8 181 5 235 -4z"/>
<path d="M482 1601 l3 -886 24 -49 c32 -64 86 -118 152 -153 l54 -28 1845 0
1845 0 53 28 c85 45 136 103 165 191 15 43 17 141 17 915 l0 867 -799 1 -799
0 -6 -31 c-10 -46 -47 -93 -89 -112 -34 -16 -77 -18 -388 -17 -306 0 -354 2
-387 17 -42 19 -78 66 -88 112 l-6 31 -799 0 -800 0 3 -886z"/>
</g>
</svg>
